G04 #@! TF.GenerationSoftware,KiCad,Pcbnew,(5.1.5)-3*
G04 #@! TF.CreationDate,2020-02-22T19:23:43-05:00*
G04 #@! TF.ProjectId,Dofleini-controller-STM32,446f666c-6569-46e6-992d-636f6e74726f,rev?*
G04 #@! TF.SameCoordinates,Original*
G04 #@! TF.FileFunction,Legend,Bot*
G04 #@! TF.FilePolarity,Positive*
%FSLAX46Y46*%
G04 Gerber Fmt 4.6, Leading zero omitted, Abs format (unit mm)*
G04 Created by KiCad (PCBNEW (5.1.5)-3) date 2020-02-22 19:23:43*
%MOMM*%
%LPD*%
G04 APERTURE LIST*
%ADD10C,0.120000*%
%ADD11C,0.150000*%
%ADD12C,0.080000*%
G04 APERTURE END LIST*
D10*
X-34293221Y12432687D02*
X-34662687Y12063221D01*
X-35297313Y13436779D02*
X-35666779Y13067313D01*
X33910000Y13061252D02*
X33910000Y12538748D01*
X32490000Y13061252D02*
X32490000Y12538748D01*
X-16241252Y12700000D02*
X-15718748Y12700000D01*
X-16241252Y11280000D02*
X-15718748Y11280000D01*
X21350000Y2810000D02*
X21350000Y-130000D01*
X21110000Y2810000D02*
X21110000Y-130000D01*
X21230000Y2810000D02*
X21230000Y-130000D01*
X15670000Y1340000D02*
X16690000Y1340000D01*
X23150000Y1340000D02*
X22130000Y1340000D01*
X16690000Y2810000D02*
X22130000Y2810000D01*
X16690000Y-130000D02*
X16690000Y2810000D01*
X22130000Y-130000D02*
X16690000Y-130000D01*
X22130000Y2810000D02*
X22130000Y-130000D01*
X-19330000Y16850000D02*
X-19330000Y14610000D01*
X-19570000Y16850000D02*
X-19570000Y14610000D01*
X-19450000Y16850000D02*
X-19450000Y14610000D01*
X-23620000Y15730000D02*
X-22970000Y15730000D01*
X-18080000Y15730000D02*
X-18730000Y15730000D01*
X-22970000Y16850000D02*
X-18730000Y16850000D01*
X-22970000Y14610000D02*
X-22970000Y16850000D01*
X-18730000Y14610000D02*
X-22970000Y14610000D01*
X-18730000Y16850000D02*
X-18730000Y14610000D01*
X-15060000Y14678748D02*
X-15060000Y15201252D01*
X-13640000Y14678748D02*
X-13640000Y15201252D01*
X30490000Y12568748D02*
X30490000Y13091252D01*
X31910000Y12568748D02*
X31910000Y13091252D01*
X37448748Y-3500000D02*
X37971252Y-3500000D01*
X37448748Y-4920000D02*
X37971252Y-4920000D01*
X41360000Y-3028748D02*
X41360000Y-3551252D01*
X39940000Y-3028748D02*
X39940000Y-3551252D01*
D11*
X-35776336Y13782038D02*
X-35708993Y13782038D01*
X-35574306Y13849382D01*
X-35506962Y13916725D01*
X-35439619Y14051413D01*
X-35439619Y14186100D01*
X-35473290Y14287115D01*
X-35574306Y14455474D01*
X-35675321Y14556489D01*
X-35843680Y14657504D01*
X-35944695Y14691176D01*
X-36079382Y14691176D01*
X-36214069Y14623832D01*
X-36281413Y14556489D01*
X-36348756Y14421802D01*
X-36348756Y14354458D01*
X-36618130Y14085084D02*
X-36685474Y14085084D01*
X-36786489Y14051413D01*
X-36954848Y13883054D01*
X-36988519Y13782038D01*
X-36988519Y13714695D01*
X-36954848Y13613680D01*
X-36887504Y13546336D01*
X-36752817Y13478993D01*
X-35944695Y13478993D01*
X-36382428Y13041260D01*
X31907142Y12966666D02*
X31954761Y13014285D01*
X32002380Y13157142D01*
X32002380Y13252380D01*
X31954761Y13395238D01*
X31859523Y13490476D01*
X31764285Y13538095D01*
X31573809Y13585714D01*
X31430952Y13585714D01*
X31240476Y13538095D01*
X31145238Y13490476D01*
X31050000Y13395238D01*
X31002380Y13252380D01*
X31002380Y13157142D01*
X31050000Y13014285D01*
X31097619Y12966666D01*
X31335714Y12109523D02*
X32002380Y12109523D01*
X30954761Y12347619D02*
X31669047Y12585714D01*
X31669047Y11966666D01*
X35495714Y13746190D02*
X36162380Y13746190D01*
X35114761Y13984285D02*
X35829047Y14222380D01*
X35829047Y13603333D01*
X36067142Y13222380D02*
X36114761Y13174761D01*
X36162380Y13222380D01*
X36114761Y13270000D01*
X36067142Y13222380D01*
X36162380Y13222380D01*
X35162380Y12841428D02*
X35162380Y12174761D01*
X36162380Y12603333D01*
X35495714Y11793809D02*
X36162380Y11793809D01*
X35590952Y11793809D02*
X35543333Y11746190D01*
X35495714Y11650952D01*
X35495714Y11508095D01*
X35543333Y11412857D01*
X35638571Y11365238D01*
X36162380Y11365238D01*
D12*
X34778571Y12923333D02*
X34802380Y12947142D01*
X34826190Y13018571D01*
X34826190Y13066190D01*
X34802380Y13137619D01*
X34754761Y13185238D01*
X34707142Y13209047D01*
X34611904Y13232857D01*
X34540476Y13232857D01*
X34445238Y13209047D01*
X34397619Y13185238D01*
X34350000Y13137619D01*
X34326190Y13066190D01*
X34326190Y13018571D01*
X34350000Y12947142D01*
X34373809Y12923333D01*
X34492857Y12494761D02*
X34826190Y12494761D01*
X34302380Y12613809D02*
X34659523Y12732857D01*
X34659523Y12423333D01*
D11*
X-14251190Y9917857D02*
X-14203571Y9870238D01*
X-14060714Y9822619D01*
X-13965476Y9822619D01*
X-13822619Y9870238D01*
X-13727380Y9965476D01*
X-13679761Y10060714D01*
X-13632142Y10251190D01*
X-13632142Y10394047D01*
X-13679761Y10584523D01*
X-13727380Y10679761D01*
X-13822619Y10775000D01*
X-13965476Y10822619D01*
X-14060714Y10822619D01*
X-14203571Y10775000D01*
X-14251190Y10727380D01*
X-15251190Y9822619D02*
X-14917857Y10298809D01*
X-14679761Y9822619D02*
X-14679761Y10822619D01*
X-15060714Y10822619D01*
X-15155952Y10775000D01*
X-15203571Y10727380D01*
X-15251190Y10632142D01*
X-15251190Y10489285D01*
X-15203571Y10394047D01*
X-15155952Y10346428D01*
X-15060714Y10298809D01*
X-14679761Y10298809D01*
X-15632142Y9870238D02*
X-15774999Y9822619D01*
X-16013095Y9822619D01*
X-16108333Y9870238D01*
X-16155952Y9917857D01*
X-16203571Y10013095D01*
X-16203571Y10108333D01*
X-16155952Y10203571D01*
X-16108333Y10251190D01*
X-16013095Y10298809D01*
X-15822619Y10346428D01*
X-15727380Y10394047D01*
X-15679761Y10441666D01*
X-15632142Y10536904D01*
X-15632142Y10632142D01*
X-15679761Y10727380D01*
X-15727380Y10775000D01*
X-15822619Y10822619D01*
X-16060714Y10822619D01*
X-16203571Y10775000D01*
X-16489285Y10822619D02*
X-17060714Y10822619D01*
X-16774999Y9822619D02*
X-16774999Y10822619D01*
X-17917857Y9822619D02*
X-17346428Y9822619D01*
X-17632142Y9822619D02*
X-17632142Y10822619D01*
X-17536904Y10679761D01*
X-17441666Y10584523D01*
X-17346428Y10536904D01*
X-14157142Y8522619D02*
X-13585714Y8522619D01*
X-13871428Y8522619D02*
X-13871428Y9522619D01*
X-13776190Y9379761D01*
X-13680952Y9284523D01*
X-13585714Y9236904D01*
X-14776190Y9522619D02*
X-14871428Y9522619D01*
X-14966666Y9475000D01*
X-15014285Y9427380D01*
X-15061904Y9332142D01*
X-15109523Y9141666D01*
X-15109523Y8903571D01*
X-15061904Y8713095D01*
X-15014285Y8617857D01*
X-14966666Y8570238D01*
X-14871428Y8522619D01*
X-14776190Y8522619D01*
X-14680952Y8570238D01*
X-14633333Y8617857D01*
X-14585714Y8713095D01*
X-14538095Y8903571D01*
X-14538095Y9141666D01*
X-14585714Y9332142D01*
X-14633333Y9427380D01*
X-14680952Y9475000D01*
X-14776190Y9522619D01*
X-15966666Y9189285D02*
X-15966666Y8522619D01*
X-15538095Y9189285D02*
X-15538095Y8665476D01*
X-15585714Y8570238D01*
X-15680952Y8522619D01*
X-15823809Y8522619D01*
X-15919047Y8570238D01*
X-15966666Y8617857D01*
X20148095Y3357619D02*
X20148095Y4357619D01*
X19910000Y4357619D01*
X19767142Y4310000D01*
X19671904Y4214761D01*
X19624285Y4119523D01*
X19576666Y3929047D01*
X19576666Y3786190D01*
X19624285Y3595714D01*
X19671904Y3500476D01*
X19767142Y3405238D01*
X19910000Y3357619D01*
X20148095Y3357619D01*
X19195714Y4262380D02*
X19148095Y4310000D01*
X19052857Y4357619D01*
X18814761Y4357619D01*
X18719523Y4310000D01*
X18671904Y4262380D01*
X18624285Y4167142D01*
X18624285Y4071904D01*
X18671904Y3929047D01*
X19243333Y3357619D01*
X18624285Y3357619D01*
X24751904Y2987619D02*
X24751904Y3987619D01*
X24180476Y2987619D02*
X24609047Y3559047D01*
X24180476Y3987619D02*
X24751904Y3416190D01*
X-18421904Y13327619D02*
X-18421904Y14327619D01*
X-18660000Y14327619D01*
X-18802857Y14280000D01*
X-18898095Y14184761D01*
X-18945714Y14089523D01*
X-18993333Y13899047D01*
X-18993333Y13756190D01*
X-18945714Y13565714D01*
X-18898095Y13470476D01*
X-18802857Y13375238D01*
X-18660000Y13327619D01*
X-18421904Y13327619D01*
X-19326666Y14327619D02*
X-19945714Y14327619D01*
X-19612380Y13946666D01*
X-19755238Y13946666D01*
X-19850476Y13899047D01*
X-19898095Y13851428D01*
X-19945714Y13756190D01*
X-19945714Y13518095D01*
X-19898095Y13422857D01*
X-19850476Y13375238D01*
X-19755238Y13327619D01*
X-19469523Y13327619D01*
X-19374285Y13375238D01*
X-19326666Y13422857D01*
X-18857142Y11927619D02*
X-18285714Y11927619D01*
X-18571428Y11927619D02*
X-18571428Y12927619D01*
X-18476190Y12784761D01*
X-18380952Y12689523D01*
X-18285714Y12641904D01*
X-19285714Y11927619D02*
X-19285714Y12927619D01*
X-19857142Y11927619D01*
X-19857142Y12927619D01*
X-20761904Y12594285D02*
X-20761904Y11927619D01*
X-20523809Y12975238D02*
X-20285714Y12260952D01*
X-20904761Y12260952D01*
X-21809523Y11927619D02*
X-21238095Y11927619D01*
X-21523809Y11927619D02*
X-21523809Y12927619D01*
X-21428571Y12784761D01*
X-21333333Y12689523D01*
X-21238095Y12641904D01*
X-22666666Y12594285D02*
X-22666666Y11927619D01*
X-22428571Y12975238D02*
X-22190476Y12260952D01*
X-22809523Y12260952D01*
X-23333333Y12499047D02*
X-23238095Y12546666D01*
X-23190476Y12594285D01*
X-23142857Y12689523D01*
X-23142857Y12737142D01*
X-23190476Y12832380D01*
X-23238095Y12880000D01*
X-23333333Y12927619D01*
X-23523809Y12927619D01*
X-23619047Y12880000D01*
X-23666666Y12832380D01*
X-23714285Y12737142D01*
X-23714285Y12689523D01*
X-23666666Y12594285D01*
X-23619047Y12546666D01*
X-23523809Y12499047D01*
X-23333333Y12499047D01*
X-23238095Y12451428D01*
X-23190476Y12403809D01*
X-23142857Y12308571D01*
X-23142857Y12118095D01*
X-23190476Y12022857D01*
X-23238095Y11975238D01*
X-23333333Y11927619D01*
X-23523809Y11927619D01*
X-23619047Y11975238D01*
X-23666666Y12022857D01*
X-23714285Y12118095D01*
X-23714285Y12308571D01*
X-23666666Y12403809D01*
X-23619047Y12451428D01*
X-23523809Y12499047D01*
X-16778095Y17077619D02*
X-16778095Y18077619D01*
X-17349523Y17077619D02*
X-16920952Y17649047D01*
X-17349523Y18077619D02*
X-16778095Y17506190D01*
X-12197619Y17166666D02*
X-12673809Y17500000D01*
X-12197619Y17738095D02*
X-13197619Y17738095D01*
X-13197619Y17357142D01*
X-13150000Y17261904D01*
X-13102380Y17214285D01*
X-13007142Y17166666D01*
X-12864285Y17166666D01*
X-12769047Y17214285D01*
X-12721428Y17261904D01*
X-12673809Y17357142D01*
X-12673809Y17738095D01*
X-13102380Y16785714D02*
X-13150000Y16738095D01*
X-13197619Y16642857D01*
X-13197619Y16404761D01*
X-13150000Y16309523D01*
X-13102380Y16261904D01*
X-13007142Y16214285D01*
X-12911904Y16214285D01*
X-12769047Y16261904D01*
X-12197619Y16833333D01*
X-12197619Y16214285D01*
X-12187619Y14531428D02*
X-12187619Y15102857D01*
X-12187619Y14817142D02*
X-13187619Y14817142D01*
X-13044761Y14912380D01*
X-12949523Y15007619D01*
X-12901904Y15102857D01*
X-13187619Y13912380D02*
X-13187619Y13817142D01*
X-13140000Y13721904D01*
X-13092380Y13674285D01*
X-12997142Y13626666D01*
X-12806666Y13579047D01*
X-12568571Y13579047D01*
X-12378095Y13626666D01*
X-12282857Y13674285D01*
X-12235238Y13721904D01*
X-12187619Y13817142D01*
X-12187619Y13912380D01*
X-12235238Y14007619D01*
X-12282857Y14055238D01*
X-12378095Y14102857D01*
X-12568571Y14150476D01*
X-12806666Y14150476D01*
X-12997142Y14102857D01*
X-13092380Y14055238D01*
X-13140000Y14007619D01*
X-13187619Y13912380D01*
X-13187619Y12960000D02*
X-13187619Y12864761D01*
X-13140000Y12769523D01*
X-13092380Y12721904D01*
X-12997142Y12674285D01*
X-12806666Y12626666D01*
X-12568571Y12626666D01*
X-12378095Y12674285D01*
X-12282857Y12721904D01*
X-12235238Y12769523D01*
X-12187619Y12864761D01*
X-12187619Y12960000D01*
X-12235238Y13055238D01*
X-12282857Y13102857D01*
X-12378095Y13150476D01*
X-12568571Y13198095D01*
X-12806666Y13198095D01*
X-12997142Y13150476D01*
X-13092380Y13102857D01*
X-13140000Y13055238D01*
X-13187619Y12960000D01*
X-12187619Y12198095D02*
X-13187619Y12198095D01*
X-12568571Y12102857D02*
X-12187619Y11817142D01*
X-12854285Y11817142D02*
X-12473333Y12198095D01*
X32397619Y12663333D02*
X32873809Y12330000D01*
X32397619Y12091904D02*
X33397619Y12091904D01*
X33397619Y12472857D01*
X33350000Y12568095D01*
X33302380Y12615714D01*
X33207142Y12663333D01*
X33064285Y12663333D01*
X32969047Y12615714D01*
X32921428Y12568095D01*
X32873809Y12472857D01*
X32873809Y12091904D01*
X33397619Y12996666D02*
X33397619Y13615714D01*
X33016666Y13282380D01*
X33016666Y13425238D01*
X32969047Y13520476D01*
X32921428Y13568095D01*
X32826190Y13615714D01*
X32588095Y13615714D01*
X32492857Y13568095D01*
X32445238Y13520476D01*
X32397619Y13425238D01*
X32397619Y13139523D01*
X32445238Y13044285D01*
X32492857Y12996666D01*
X31852380Y16105714D02*
X31852380Y16677142D01*
X31852380Y16391428D02*
X30852380Y16391428D01*
X30995238Y16486666D01*
X31090476Y16581904D01*
X31138095Y16677142D01*
X31852380Y15677142D02*
X30852380Y15677142D01*
X31566666Y15343809D01*
X30852380Y15010476D01*
X31852380Y15010476D01*
D12*
X30616190Y16293333D02*
X30378095Y16460000D01*
X30616190Y16579047D02*
X30116190Y16579047D01*
X30116190Y16388571D01*
X30140000Y16340952D01*
X30163809Y16317142D01*
X30211428Y16293333D01*
X30282857Y16293333D01*
X30330476Y16317142D01*
X30354285Y16340952D01*
X30378095Y16388571D01*
X30378095Y16579047D01*
X30116190Y16126666D02*
X30116190Y15817142D01*
X30306666Y15983809D01*
X30306666Y15912380D01*
X30330476Y15864761D01*
X30354285Y15840952D01*
X30401904Y15817142D01*
X30520952Y15817142D01*
X30568571Y15840952D01*
X30592380Y15864761D01*
X30616190Y15912380D01*
X30616190Y16055238D01*
X30592380Y16102857D01*
X30568571Y16126666D01*
D11*
X37876666Y-6312380D02*
X38210000Y-5836190D01*
X38448095Y-6312380D02*
X38448095Y-5312380D01*
X38067142Y-5312380D01*
X37971904Y-5360000D01*
X37924285Y-5407619D01*
X37876666Y-5502857D01*
X37876666Y-5645714D01*
X37924285Y-5740952D01*
X37971904Y-5788571D01*
X38067142Y-5836190D01*
X38448095Y-5836190D01*
X37019523Y-5312380D02*
X37210000Y-5312380D01*
X37305238Y-5360000D01*
X37352857Y-5407619D01*
X37448095Y-5550476D01*
X37495714Y-5740952D01*
X37495714Y-6121904D01*
X37448095Y-6217142D01*
X37400476Y-6264761D01*
X37305238Y-6312380D01*
X37114761Y-6312380D01*
X37019523Y-6264761D01*
X36971904Y-6217142D01*
X36924285Y-6121904D01*
X36924285Y-5883809D01*
X36971904Y-5788571D01*
X37019523Y-5740952D01*
X37114761Y-5693333D01*
X37305238Y-5693333D01*
X37400476Y-5740952D01*
X37448095Y-5788571D01*
X37495714Y-5883809D01*
X37896666Y-7542380D02*
X38468095Y-7542380D01*
X38182380Y-7542380D02*
X38182380Y-6542380D01*
X38277619Y-6685238D01*
X38372857Y-6780476D01*
X38468095Y-6828095D01*
X37277619Y-6542380D02*
X37182380Y-6542380D01*
X37087142Y-6590000D01*
X37039523Y-6637619D01*
X36991904Y-6732857D01*
X36944285Y-6923333D01*
X36944285Y-7161428D01*
X36991904Y-7351904D01*
X37039523Y-7447142D01*
X37087142Y-7494761D01*
X37182380Y-7542380D01*
X37277619Y-7542380D01*
X37372857Y-7494761D01*
X37420476Y-7447142D01*
X37468095Y-7351904D01*
X37515714Y-7161428D01*
X37515714Y-6923333D01*
X37468095Y-6732857D01*
X37420476Y-6637619D01*
X37372857Y-6590000D01*
X37277619Y-6542380D01*
X36325238Y-6542380D02*
X36230000Y-6542380D01*
X36134761Y-6590000D01*
X36087142Y-6637619D01*
X36039523Y-6732857D01*
X35991904Y-6923333D01*
X35991904Y-7161428D01*
X36039523Y-7351904D01*
X36087142Y-7447142D01*
X36134761Y-7494761D01*
X36230000Y-7542380D01*
X36325238Y-7542380D01*
X36420476Y-7494761D01*
X36468095Y-7447142D01*
X36515714Y-7351904D01*
X36563333Y-7161428D01*
X36563333Y-6923333D01*
X36515714Y-6732857D01*
X36468095Y-6637619D01*
X36420476Y-6590000D01*
X36325238Y-6542380D01*
X40832380Y-5933333D02*
X40356190Y-5600000D01*
X40832380Y-5361904D02*
X39832380Y-5361904D01*
X39832380Y-5742857D01*
X39880000Y-5838095D01*
X39927619Y-5885714D01*
X40022857Y-5933333D01*
X40165714Y-5933333D01*
X40260952Y-5885714D01*
X40308571Y-5838095D01*
X40356190Y-5742857D01*
X40356190Y-5361904D01*
X39832380Y-6266666D02*
X39832380Y-6933333D01*
X40832380Y-6504761D01*
X42182380Y-5964761D02*
X42182380Y-5393333D01*
X42182380Y-5679047D02*
X41182380Y-5679047D01*
X41325238Y-5583809D01*
X41420476Y-5488571D01*
X41468095Y-5393333D01*
X41182380Y-6583809D02*
X41182380Y-6679047D01*
X41230000Y-6774285D01*
X41277619Y-6821904D01*
X41372857Y-6869523D01*
X41563333Y-6917142D01*
X41801428Y-6917142D01*
X41991904Y-6869523D01*
X42087142Y-6821904D01*
X42134761Y-6774285D01*
X42182380Y-6679047D01*
X42182380Y-6583809D01*
X42134761Y-6488571D01*
X42087142Y-6440952D01*
X41991904Y-6393333D01*
X41801428Y-6345714D01*
X41563333Y-6345714D01*
X41372857Y-6393333D01*
X41277619Y-6440952D01*
X41230000Y-6488571D01*
X41182380Y-6583809D01*
X42182380Y-7345714D02*
X41182380Y-7345714D01*
X41801428Y-7440952D02*
X42182380Y-7726666D01*
X41515714Y-7726666D02*
X41896666Y-7345714D01*
M02*
