M48
; DRILL file {KiCad (5.1.5)-3} date 2/22/2020 7:23:45 PM
; FORMAT={-:-/ absolute / metric / decimal}
; #@! TF.CreationDate,2020-02-22T19:23:45-05:00
; #@! TF.GenerationSoftware,Kicad,Pcbnew,(5.1.5)-3
; #@! TF.FileFunction,Plated,1,2,PTH
FMAT,2
METRIC
T1C0.400
T2C0.600
T3C0.800
T4C1.000
T5C1.100
%
G90
G05
T1
X-40.17Y13.28
X-38.12Y14.17
X-34.63Y-2.61
X-33.68Y-2.62
X-33.5Y1.63
X-33.46Y3.19
X-31.33Y4.48
X-30.79Y8.33
X-30.21Y4.09
X-28.8Y-2.62
X-27.84Y-2.61
X-27.48Y-0.17
X-27.17Y17.11
X-27.1Y14.15
X-26.85Y5.4
X-25.19Y6.57
X-24.18Y2.76
X-23.48Y3.72
X-22.72Y4.77
X-19.83Y-2.92
X-19.81Y12.5
X-18.85Y-2.92
X-18.4Y13.77
X-15.75Y-0.24
X-15.53Y3.95
X-14.37Y13.93
X-14.24Y4.75
X-14.22Y3.75
X-7.366Y4.318
X7.4Y8.0
X8.3Y1.778
X9.375Y7.975
X9.63Y5.14
X9.652Y1.778
X17.86Y2.78
X20.035Y6.75
X21.28Y10.04
X21.46Y8.56
X24.7Y-5.65
X25.495Y-3.755
X26.4Y-2.85
X27.04Y8.46
X28.05Y9.82
X30.2Y9.025
X31.2Y9.0
X32.8Y2.31
X33.4Y6.8
X34.6Y6.9
X36.66Y-6.08
X37.06Y-9.13
X38.075Y-9.13
X39.03Y-9.13
X40.71Y-7.05
T3
X-24.66Y15.73
X-17.04Y15.73
T4
X-43.18Y15.24
X-43.18Y12.7
X-43.18Y10.16
X-43.18Y7.62
X-43.18Y5.08
X-43.18Y2.54
X-43.18Y0.0
X-43.18Y-2.54
X-43.18Y-5.08
X-27.94Y-7.62
X-25.4Y-7.62
X-22.86Y-7.62
X-20.32Y-7.62
X-17.78Y-7.62
X-15.24Y-7.62
X-12.7Y-7.62
X-10.16Y-7.62
X-7.62Y-7.62
X-5.08Y-7.62
X-2.54Y-7.62
X0.0Y-7.62
X2.54Y-7.62
X5.08Y-7.62
X7.62Y-7.62
X10.16Y-7.62
X12.7Y-7.62
X15.24Y-7.62
X17.78Y-7.62
X20.32Y-7.62
X22.86Y-7.62
X25.4Y-7.62
X-10.88Y14.72
X-8.34Y14.72
X-5.8Y14.72
X-3.26Y14.72
X-0.72Y14.72
X1.82Y14.72
X4.36Y14.72
X6.9Y14.72
X9.44Y14.72
X11.98Y14.72
X40.64Y15.24
X40.64Y12.7
X40.64Y10.16
X40.64Y7.62
X40.64Y5.08
X40.64Y2.54
X40.64Y0.0
T5
X14.33Y1.34
X24.49Y1.34
T2
G00X20.44Y15.87
M15
G01X20.44Y16.47
M16
G05
G00X20.44Y11.42
M15
G01X20.44Y12.52
M16
G05
G00X29.04Y15.87
M15
G01X29.04Y16.47
M16
G05
G00X29.04Y11.42
M15
G01X29.04Y12.52
M16
G05
T0
M30
