G04 #@! TF.GenerationSoftware,KiCad,Pcbnew,(5.1.5)-3*
G04 #@! TF.CreationDate,2020-02-22T19:23:43-05:00*
G04 #@! TF.ProjectId,Dofleini-controller-STM32,446f666c-6569-46e6-992d-636f6e74726f,rev?*
G04 #@! TF.SameCoordinates,Original*
G04 #@! TF.FileFunction,Paste,Bot*
G04 #@! TF.FilePolarity,Positive*
%FSLAX46Y46*%
G04 Gerber Fmt 4.6, Leading zero omitted, Abs format (unit mm)*
G04 Created by KiCad (PCBNEW (5.1.5)-3) date 2020-02-22 19:23:43*
%MOMM*%
%LPD*%
G04 APERTURE LIST*
%ADD10C,0.100000*%
G04 APERTURE END LIST*
D10*
G36*
X-35768668Y12822020D02*
G01*
X-35744400Y12818420D01*
X-35720601Y12812459D01*
X-35697502Y12804194D01*
X-35675323Y12793704D01*
X-35654280Y12781092D01*
X-35634574Y12766477D01*
X-35616396Y12750001D01*
X-34979999Y12113604D01*
X-34963523Y12095426D01*
X-34948908Y12075720D01*
X-34936296Y12054677D01*
X-34925806Y12032498D01*
X-34917541Y12009399D01*
X-34911580Y11985600D01*
X-34907980Y11961332D01*
X-34906776Y11936828D01*
X-34907980Y11912324D01*
X-34911580Y11888056D01*
X-34917541Y11864257D01*
X-34925806Y11841158D01*
X-34936296Y11818979D01*
X-34948908Y11797936D01*
X-34963523Y11778230D01*
X-34979999Y11760052D01*
X-35439620Y11300431D01*
X-35457798Y11283955D01*
X-35477504Y11269340D01*
X-35498547Y11256728D01*
X-35520726Y11246238D01*
X-35543825Y11237973D01*
X-35567624Y11232012D01*
X-35591892Y11228412D01*
X-35616396Y11227208D01*
X-35640900Y11228412D01*
X-35665168Y11232012D01*
X-35688967Y11237973D01*
X-35712066Y11246238D01*
X-35734245Y11256728D01*
X-35755288Y11269340D01*
X-35774994Y11283955D01*
X-35793172Y11300431D01*
X-36429569Y11936828D01*
X-36446045Y11955006D01*
X-36460660Y11974712D01*
X-36473272Y11995755D01*
X-36483762Y12017934D01*
X-36492027Y12041033D01*
X-36497988Y12064832D01*
X-36501588Y12089100D01*
X-36502792Y12113604D01*
X-36501588Y12138108D01*
X-36497988Y12162376D01*
X-36492027Y12186175D01*
X-36483762Y12209274D01*
X-36473272Y12231453D01*
X-36460660Y12252496D01*
X-36446045Y12272202D01*
X-36429569Y12290380D01*
X-35969948Y12750001D01*
X-35951770Y12766477D01*
X-35932064Y12781092D01*
X-35911021Y12793704D01*
X-35888842Y12804194D01*
X-35865743Y12812459D01*
X-35841944Y12818420D01*
X-35817676Y12822020D01*
X-35793172Y12823224D01*
X-35768668Y12822020D01*
G37*
G36*
X-34319100Y14271588D02*
G01*
X-34294832Y14267988D01*
X-34271033Y14262027D01*
X-34247934Y14253762D01*
X-34225755Y14243272D01*
X-34204712Y14230660D01*
X-34185006Y14216045D01*
X-34166828Y14199569D01*
X-33530431Y13563172D01*
X-33513955Y13544994D01*
X-33499340Y13525288D01*
X-33486728Y13504245D01*
X-33476238Y13482066D01*
X-33467973Y13458967D01*
X-33462012Y13435168D01*
X-33458412Y13410900D01*
X-33457208Y13386396D01*
X-33458412Y13361892D01*
X-33462012Y13337624D01*
X-33467973Y13313825D01*
X-33476238Y13290726D01*
X-33486728Y13268547D01*
X-33499340Y13247504D01*
X-33513955Y13227798D01*
X-33530431Y13209620D01*
X-33990052Y12749999D01*
X-34008230Y12733523D01*
X-34027936Y12718908D01*
X-34048979Y12706296D01*
X-34071158Y12695806D01*
X-34094257Y12687541D01*
X-34118056Y12681580D01*
X-34142324Y12677980D01*
X-34166828Y12676776D01*
X-34191332Y12677980D01*
X-34215600Y12681580D01*
X-34239399Y12687541D01*
X-34262498Y12695806D01*
X-34284677Y12706296D01*
X-34305720Y12718908D01*
X-34325426Y12733523D01*
X-34343604Y12749999D01*
X-34980001Y13386396D01*
X-34996477Y13404574D01*
X-35011092Y13424280D01*
X-35023704Y13445323D01*
X-35034194Y13467502D01*
X-35042459Y13490601D01*
X-35048420Y13514400D01*
X-35052020Y13538668D01*
X-35053224Y13563172D01*
X-35052020Y13587676D01*
X-35048420Y13611944D01*
X-35042459Y13635743D01*
X-35034194Y13658842D01*
X-35023704Y13681021D01*
X-35011092Y13702064D01*
X-34996477Y13721770D01*
X-34980001Y13739948D01*
X-34520380Y14199569D01*
X-34502202Y14216045D01*
X-34482496Y14230660D01*
X-34461453Y14243272D01*
X-34439274Y14253762D01*
X-34416175Y14262027D01*
X-34392376Y14267988D01*
X-34368108Y14271588D01*
X-34343604Y14272792D01*
X-34319100Y14271588D01*
G37*
G36*
X33674505Y12348796D02*
G01*
X33698773Y12345196D01*
X33722572Y12339235D01*
X33745671Y12330970D01*
X33767850Y12320480D01*
X33788893Y12307868D01*
X33808599Y12293253D01*
X33826777Y12276777D01*
X33843253Y12258599D01*
X33857868Y12238893D01*
X33870480Y12217850D01*
X33880970Y12195671D01*
X33889235Y12172572D01*
X33895196Y12148773D01*
X33898796Y12124505D01*
X33900000Y12100001D01*
X33900000Y11449999D01*
X33898796Y11425495D01*
X33895196Y11401227D01*
X33889235Y11377428D01*
X33880970Y11354329D01*
X33870480Y11332150D01*
X33857868Y11311107D01*
X33843253Y11291401D01*
X33826777Y11273223D01*
X33808599Y11256747D01*
X33788893Y11242132D01*
X33767850Y11229520D01*
X33745671Y11219030D01*
X33722572Y11210765D01*
X33698773Y11204804D01*
X33674505Y11201204D01*
X33650001Y11200000D01*
X32749999Y11200000D01*
X32725495Y11201204D01*
X32701227Y11204804D01*
X32677428Y11210765D01*
X32654329Y11219030D01*
X32632150Y11229520D01*
X32611107Y11242132D01*
X32591401Y11256747D01*
X32573223Y11273223D01*
X32556747Y11291401D01*
X32542132Y11311107D01*
X32529520Y11332150D01*
X32519030Y11354329D01*
X32510765Y11377428D01*
X32504804Y11401227D01*
X32501204Y11425495D01*
X32500000Y11449999D01*
X32500000Y12100001D01*
X32501204Y12124505D01*
X32504804Y12148773D01*
X32510765Y12172572D01*
X32519030Y12195671D01*
X32529520Y12217850D01*
X32542132Y12238893D01*
X32556747Y12258599D01*
X32573223Y12276777D01*
X32591401Y12293253D01*
X32611107Y12307868D01*
X32632150Y12320480D01*
X32654329Y12330970D01*
X32677428Y12339235D01*
X32701227Y12345196D01*
X32725495Y12348796D01*
X32749999Y12350000D01*
X33650001Y12350000D01*
X33674505Y12348796D01*
G37*
G36*
X33674505Y14398796D02*
G01*
X33698773Y14395196D01*
X33722572Y14389235D01*
X33745671Y14380970D01*
X33767850Y14370480D01*
X33788893Y14357868D01*
X33808599Y14343253D01*
X33826777Y14326777D01*
X33843253Y14308599D01*
X33857868Y14288893D01*
X33870480Y14267850D01*
X33880970Y14245671D01*
X33889235Y14222572D01*
X33895196Y14198773D01*
X33898796Y14174505D01*
X33900000Y14150001D01*
X33900000Y13499999D01*
X33898796Y13475495D01*
X33895196Y13451227D01*
X33889235Y13427428D01*
X33880970Y13404329D01*
X33870480Y13382150D01*
X33857868Y13361107D01*
X33843253Y13341401D01*
X33826777Y13323223D01*
X33808599Y13306747D01*
X33788893Y13292132D01*
X33767850Y13279520D01*
X33745671Y13269030D01*
X33722572Y13260765D01*
X33698773Y13254804D01*
X33674505Y13251204D01*
X33650001Y13250000D01*
X32749999Y13250000D01*
X32725495Y13251204D01*
X32701227Y13254804D01*
X32677428Y13260765D01*
X32654329Y13269030D01*
X32632150Y13279520D01*
X32611107Y13292132D01*
X32591401Y13306747D01*
X32573223Y13323223D01*
X32556747Y13341401D01*
X32542132Y13361107D01*
X32529520Y13382150D01*
X32519030Y13404329D01*
X32510765Y13427428D01*
X32504804Y13451227D01*
X32501204Y13475495D01*
X32500000Y13499999D01*
X32500000Y14150001D01*
X32501204Y14174505D01*
X32504804Y14198773D01*
X32510765Y14222572D01*
X32519030Y14245671D01*
X32529520Y14267850D01*
X32542132Y14288893D01*
X32556747Y14308599D01*
X32573223Y14326777D01*
X32591401Y14343253D01*
X32611107Y14357868D01*
X32632150Y14370480D01*
X32654329Y14380970D01*
X32677428Y14389235D01*
X32701227Y14395196D01*
X32725495Y14398796D01*
X32749999Y14400000D01*
X33650001Y14400000D01*
X33674505Y14398796D01*
G37*
G36*
X-14605495Y12688796D02*
G01*
X-14581227Y12685196D01*
X-14557428Y12679235D01*
X-14534329Y12670970D01*
X-14512150Y12660480D01*
X-14491107Y12647868D01*
X-14471401Y12633253D01*
X-14453223Y12616777D01*
X-14436747Y12598599D01*
X-14422132Y12578893D01*
X-14409520Y12557850D01*
X-14399030Y12535671D01*
X-14390765Y12512572D01*
X-14384804Y12488773D01*
X-14381204Y12464505D01*
X-14380000Y12440001D01*
X-14380000Y11539999D01*
X-14381204Y11515495D01*
X-14384804Y11491227D01*
X-14390765Y11467428D01*
X-14399030Y11444329D01*
X-14409520Y11422150D01*
X-14422132Y11401107D01*
X-14436747Y11381401D01*
X-14453223Y11363223D01*
X-14471401Y11346747D01*
X-14491107Y11332132D01*
X-14512150Y11319520D01*
X-14534329Y11309030D01*
X-14557428Y11300765D01*
X-14581227Y11294804D01*
X-14605495Y11291204D01*
X-14629999Y11290000D01*
X-15280001Y11290000D01*
X-15304505Y11291204D01*
X-15328773Y11294804D01*
X-15352572Y11300765D01*
X-15375671Y11309030D01*
X-15397850Y11319520D01*
X-15418893Y11332132D01*
X-15438599Y11346747D01*
X-15456777Y11363223D01*
X-15473253Y11381401D01*
X-15487868Y11401107D01*
X-15500480Y11422150D01*
X-15510970Y11444329D01*
X-15519235Y11467428D01*
X-15525196Y11491227D01*
X-15528796Y11515495D01*
X-15530000Y11539999D01*
X-15530000Y12440001D01*
X-15528796Y12464505D01*
X-15525196Y12488773D01*
X-15519235Y12512572D01*
X-15510970Y12535671D01*
X-15500480Y12557850D01*
X-15487868Y12578893D01*
X-15473253Y12598599D01*
X-15456777Y12616777D01*
X-15438599Y12633253D01*
X-15418893Y12647868D01*
X-15397850Y12660480D01*
X-15375671Y12670970D01*
X-15352572Y12679235D01*
X-15328773Y12685196D01*
X-15304505Y12688796D01*
X-15280001Y12690000D01*
X-14629999Y12690000D01*
X-14605495Y12688796D01*
G37*
G36*
X-16655495Y12688796D02*
G01*
X-16631227Y12685196D01*
X-16607428Y12679235D01*
X-16584329Y12670970D01*
X-16562150Y12660480D01*
X-16541107Y12647868D01*
X-16521401Y12633253D01*
X-16503223Y12616777D01*
X-16486747Y12598599D01*
X-16472132Y12578893D01*
X-16459520Y12557850D01*
X-16449030Y12535671D01*
X-16440765Y12512572D01*
X-16434804Y12488773D01*
X-16431204Y12464505D01*
X-16430000Y12440001D01*
X-16430000Y11539999D01*
X-16431204Y11515495D01*
X-16434804Y11491227D01*
X-16440765Y11467428D01*
X-16449030Y11444329D01*
X-16459520Y11422150D01*
X-16472132Y11401107D01*
X-16486747Y11381401D01*
X-16503223Y11363223D01*
X-16521401Y11346747D01*
X-16541107Y11332132D01*
X-16562150Y11319520D01*
X-16584329Y11309030D01*
X-16607428Y11300765D01*
X-16631227Y11294804D01*
X-16655495Y11291204D01*
X-16679999Y11290000D01*
X-17330001Y11290000D01*
X-17354505Y11291204D01*
X-17378773Y11294804D01*
X-17402572Y11300765D01*
X-17425671Y11309030D01*
X-17447850Y11319520D01*
X-17468893Y11332132D01*
X-17488599Y11346747D01*
X-17506777Y11363223D01*
X-17523253Y11381401D01*
X-17537868Y11401107D01*
X-17550480Y11422150D01*
X-17560970Y11444329D01*
X-17569235Y11467428D01*
X-17575196Y11491227D01*
X-17578796Y11515495D01*
X-17580000Y11539999D01*
X-17580000Y12440001D01*
X-17578796Y12464505D01*
X-17575196Y12488773D01*
X-17569235Y12512572D01*
X-17560970Y12535671D01*
X-17550480Y12557850D01*
X-17537868Y12578893D01*
X-17523253Y12598599D01*
X-17506777Y12616777D01*
X-17488599Y12633253D01*
X-17468893Y12647868D01*
X-17447850Y12660480D01*
X-17425671Y12670970D01*
X-17402572Y12679235D01*
X-17378773Y12685196D01*
X-17354505Y12688796D01*
X-17330001Y12690000D01*
X-16679999Y12690000D01*
X-16655495Y12688796D01*
G37*
G36*
X-13875495Y16538796D02*
G01*
X-13851227Y16535196D01*
X-13827428Y16529235D01*
X-13804329Y16520970D01*
X-13782150Y16510480D01*
X-13761107Y16497868D01*
X-13741401Y16483253D01*
X-13723223Y16466777D01*
X-13706747Y16448599D01*
X-13692132Y16428893D01*
X-13679520Y16407850D01*
X-13669030Y16385671D01*
X-13660765Y16362572D01*
X-13654804Y16338773D01*
X-13651204Y16314505D01*
X-13650000Y16290001D01*
X-13650000Y15639999D01*
X-13651204Y15615495D01*
X-13654804Y15591227D01*
X-13660765Y15567428D01*
X-13669030Y15544329D01*
X-13679520Y15522150D01*
X-13692132Y15501107D01*
X-13706747Y15481401D01*
X-13723223Y15463223D01*
X-13741401Y15446747D01*
X-13761107Y15432132D01*
X-13782150Y15419520D01*
X-13804329Y15409030D01*
X-13827428Y15400765D01*
X-13851227Y15394804D01*
X-13875495Y15391204D01*
X-13899999Y15390000D01*
X-14800001Y15390000D01*
X-14824505Y15391204D01*
X-14848773Y15394804D01*
X-14872572Y15400765D01*
X-14895671Y15409030D01*
X-14917850Y15419520D01*
X-14938893Y15432132D01*
X-14958599Y15446747D01*
X-14976777Y15463223D01*
X-14993253Y15481401D01*
X-15007868Y15501107D01*
X-15020480Y15522150D01*
X-15030970Y15544329D01*
X-15039235Y15567428D01*
X-15045196Y15591227D01*
X-15048796Y15615495D01*
X-15050000Y15639999D01*
X-15050000Y16290001D01*
X-15048796Y16314505D01*
X-15045196Y16338773D01*
X-15039235Y16362572D01*
X-15030970Y16385671D01*
X-15020480Y16407850D01*
X-15007868Y16428893D01*
X-14993253Y16448599D01*
X-14976777Y16466777D01*
X-14958599Y16483253D01*
X-14938893Y16497868D01*
X-14917850Y16510480D01*
X-14895671Y16520970D01*
X-14872572Y16529235D01*
X-14848773Y16535196D01*
X-14824505Y16538796D01*
X-14800001Y16540000D01*
X-13899999Y16540000D01*
X-13875495Y16538796D01*
G37*
G36*
X-13875495Y14488796D02*
G01*
X-13851227Y14485196D01*
X-13827428Y14479235D01*
X-13804329Y14470970D01*
X-13782150Y14460480D01*
X-13761107Y14447868D01*
X-13741401Y14433253D01*
X-13723223Y14416777D01*
X-13706747Y14398599D01*
X-13692132Y14378893D01*
X-13679520Y14357850D01*
X-13669030Y14335671D01*
X-13660765Y14312572D01*
X-13654804Y14288773D01*
X-13651204Y14264505D01*
X-13650000Y14240001D01*
X-13650000Y13589999D01*
X-13651204Y13565495D01*
X-13654804Y13541227D01*
X-13660765Y13517428D01*
X-13669030Y13494329D01*
X-13679520Y13472150D01*
X-13692132Y13451107D01*
X-13706747Y13431401D01*
X-13723223Y13413223D01*
X-13741401Y13396747D01*
X-13761107Y13382132D01*
X-13782150Y13369520D01*
X-13804329Y13359030D01*
X-13827428Y13350765D01*
X-13851227Y13344804D01*
X-13875495Y13341204D01*
X-13899999Y13340000D01*
X-14800001Y13340000D01*
X-14824505Y13341204D01*
X-14848773Y13344804D01*
X-14872572Y13350765D01*
X-14895671Y13359030D01*
X-14917850Y13369520D01*
X-14938893Y13382132D01*
X-14958599Y13396747D01*
X-14976777Y13413223D01*
X-14993253Y13431401D01*
X-15007868Y13451107D01*
X-15020480Y13472150D01*
X-15030970Y13494329D01*
X-15039235Y13517428D01*
X-15045196Y13541227D01*
X-15048796Y13565495D01*
X-15050000Y13589999D01*
X-15050000Y14240001D01*
X-15048796Y14264505D01*
X-15045196Y14288773D01*
X-15039235Y14312572D01*
X-15030970Y14335671D01*
X-15020480Y14357850D01*
X-15007868Y14378893D01*
X-14993253Y14398599D01*
X-14976777Y14416777D01*
X-14958599Y14433253D01*
X-14938893Y14447868D01*
X-14917850Y14460480D01*
X-14895671Y14470970D01*
X-14872572Y14479235D01*
X-14848773Y14485196D01*
X-14824505Y14488796D01*
X-14800001Y14490000D01*
X-13899999Y14490000D01*
X-13875495Y14488796D01*
G37*
G36*
X31674505Y14428796D02*
G01*
X31698773Y14425196D01*
X31722572Y14419235D01*
X31745671Y14410970D01*
X31767850Y14400480D01*
X31788893Y14387868D01*
X31808599Y14373253D01*
X31826777Y14356777D01*
X31843253Y14338599D01*
X31857868Y14318893D01*
X31870480Y14297850D01*
X31880970Y14275671D01*
X31889235Y14252572D01*
X31895196Y14228773D01*
X31898796Y14204505D01*
X31900000Y14180001D01*
X31900000Y13529999D01*
X31898796Y13505495D01*
X31895196Y13481227D01*
X31889235Y13457428D01*
X31880970Y13434329D01*
X31870480Y13412150D01*
X31857868Y13391107D01*
X31843253Y13371401D01*
X31826777Y13353223D01*
X31808599Y13336747D01*
X31788893Y13322132D01*
X31767850Y13309520D01*
X31745671Y13299030D01*
X31722572Y13290765D01*
X31698773Y13284804D01*
X31674505Y13281204D01*
X31650001Y13280000D01*
X30749999Y13280000D01*
X30725495Y13281204D01*
X30701227Y13284804D01*
X30677428Y13290765D01*
X30654329Y13299030D01*
X30632150Y13309520D01*
X30611107Y13322132D01*
X30591401Y13336747D01*
X30573223Y13353223D01*
X30556747Y13371401D01*
X30542132Y13391107D01*
X30529520Y13412150D01*
X30519030Y13434329D01*
X30510765Y13457428D01*
X30504804Y13481227D01*
X30501204Y13505495D01*
X30500000Y13529999D01*
X30500000Y14180001D01*
X30501204Y14204505D01*
X30504804Y14228773D01*
X30510765Y14252572D01*
X30519030Y14275671D01*
X30529520Y14297850D01*
X30542132Y14318893D01*
X30556747Y14338599D01*
X30573223Y14356777D01*
X30591401Y14373253D01*
X30611107Y14387868D01*
X30632150Y14400480D01*
X30654329Y14410970D01*
X30677428Y14419235D01*
X30701227Y14425196D01*
X30725495Y14428796D01*
X30749999Y14430000D01*
X31650001Y14430000D01*
X31674505Y14428796D01*
G37*
G36*
X31674505Y12378796D02*
G01*
X31698773Y12375196D01*
X31722572Y12369235D01*
X31745671Y12360970D01*
X31767850Y12350480D01*
X31788893Y12337868D01*
X31808599Y12323253D01*
X31826777Y12306777D01*
X31843253Y12288599D01*
X31857868Y12268893D01*
X31870480Y12247850D01*
X31880970Y12225671D01*
X31889235Y12202572D01*
X31895196Y12178773D01*
X31898796Y12154505D01*
X31900000Y12130001D01*
X31900000Y11479999D01*
X31898796Y11455495D01*
X31895196Y11431227D01*
X31889235Y11407428D01*
X31880970Y11384329D01*
X31870480Y11362150D01*
X31857868Y11341107D01*
X31843253Y11321401D01*
X31826777Y11303223D01*
X31808599Y11286747D01*
X31788893Y11272132D01*
X31767850Y11259520D01*
X31745671Y11249030D01*
X31722572Y11240765D01*
X31698773Y11234804D01*
X31674505Y11231204D01*
X31650001Y11230000D01*
X30749999Y11230000D01*
X30725495Y11231204D01*
X30701227Y11234804D01*
X30677428Y11240765D01*
X30654329Y11249030D01*
X30632150Y11259520D01*
X30611107Y11272132D01*
X30591401Y11286747D01*
X30573223Y11303223D01*
X30556747Y11321401D01*
X30542132Y11341107D01*
X30529520Y11362150D01*
X30519030Y11384329D01*
X30510765Y11407428D01*
X30504804Y11431227D01*
X30501204Y11455495D01*
X30500000Y11479999D01*
X30500000Y12130001D01*
X30501204Y12154505D01*
X30504804Y12178773D01*
X30510765Y12202572D01*
X30519030Y12225671D01*
X30529520Y12247850D01*
X30542132Y12268893D01*
X30556747Y12288599D01*
X30573223Y12306777D01*
X30591401Y12323253D01*
X30611107Y12337868D01*
X30632150Y12350480D01*
X30654329Y12360970D01*
X30677428Y12369235D01*
X30701227Y12375196D01*
X30725495Y12378796D01*
X30749999Y12380000D01*
X31650001Y12380000D01*
X31674505Y12378796D01*
G37*
G36*
X39084505Y-3511204D02*
G01*
X39108773Y-3514804D01*
X39132572Y-3520765D01*
X39155671Y-3529030D01*
X39177850Y-3539520D01*
X39198893Y-3552132D01*
X39218599Y-3566747D01*
X39236777Y-3583223D01*
X39253253Y-3601401D01*
X39267868Y-3621107D01*
X39280480Y-3642150D01*
X39290970Y-3664329D01*
X39299235Y-3687428D01*
X39305196Y-3711227D01*
X39308796Y-3735495D01*
X39310000Y-3759999D01*
X39310000Y-4660001D01*
X39308796Y-4684505D01*
X39305196Y-4708773D01*
X39299235Y-4732572D01*
X39290970Y-4755671D01*
X39280480Y-4777850D01*
X39267868Y-4798893D01*
X39253253Y-4818599D01*
X39236777Y-4836777D01*
X39218599Y-4853253D01*
X39198893Y-4867868D01*
X39177850Y-4880480D01*
X39155671Y-4890970D01*
X39132572Y-4899235D01*
X39108773Y-4905196D01*
X39084505Y-4908796D01*
X39060001Y-4910000D01*
X38409999Y-4910000D01*
X38385495Y-4908796D01*
X38361227Y-4905196D01*
X38337428Y-4899235D01*
X38314329Y-4890970D01*
X38292150Y-4880480D01*
X38271107Y-4867868D01*
X38251401Y-4853253D01*
X38233223Y-4836777D01*
X38216747Y-4818599D01*
X38202132Y-4798893D01*
X38189520Y-4777850D01*
X38179030Y-4755671D01*
X38170765Y-4732572D01*
X38164804Y-4708773D01*
X38161204Y-4684505D01*
X38160000Y-4660001D01*
X38160000Y-3759999D01*
X38161204Y-3735495D01*
X38164804Y-3711227D01*
X38170765Y-3687428D01*
X38179030Y-3664329D01*
X38189520Y-3642150D01*
X38202132Y-3621107D01*
X38216747Y-3601401D01*
X38233223Y-3583223D01*
X38251401Y-3566747D01*
X38271107Y-3552132D01*
X38292150Y-3539520D01*
X38314329Y-3529030D01*
X38337428Y-3520765D01*
X38361227Y-3514804D01*
X38385495Y-3511204D01*
X38409999Y-3510000D01*
X39060001Y-3510000D01*
X39084505Y-3511204D01*
G37*
G36*
X37034505Y-3511204D02*
G01*
X37058773Y-3514804D01*
X37082572Y-3520765D01*
X37105671Y-3529030D01*
X37127850Y-3539520D01*
X37148893Y-3552132D01*
X37168599Y-3566747D01*
X37186777Y-3583223D01*
X37203253Y-3601401D01*
X37217868Y-3621107D01*
X37230480Y-3642150D01*
X37240970Y-3664329D01*
X37249235Y-3687428D01*
X37255196Y-3711227D01*
X37258796Y-3735495D01*
X37260000Y-3759999D01*
X37260000Y-4660001D01*
X37258796Y-4684505D01*
X37255196Y-4708773D01*
X37249235Y-4732572D01*
X37240970Y-4755671D01*
X37230480Y-4777850D01*
X37217868Y-4798893D01*
X37203253Y-4818599D01*
X37186777Y-4836777D01*
X37168599Y-4853253D01*
X37148893Y-4867868D01*
X37127850Y-4880480D01*
X37105671Y-4890970D01*
X37082572Y-4899235D01*
X37058773Y-4905196D01*
X37034505Y-4908796D01*
X37010001Y-4910000D01*
X36359999Y-4910000D01*
X36335495Y-4908796D01*
X36311227Y-4905196D01*
X36287428Y-4899235D01*
X36264329Y-4890970D01*
X36242150Y-4880480D01*
X36221107Y-4867868D01*
X36201401Y-4853253D01*
X36183223Y-4836777D01*
X36166747Y-4818599D01*
X36152132Y-4798893D01*
X36139520Y-4777850D01*
X36129030Y-4755671D01*
X36120765Y-4732572D01*
X36114804Y-4708773D01*
X36111204Y-4684505D01*
X36110000Y-4660001D01*
X36110000Y-3759999D01*
X36111204Y-3735495D01*
X36114804Y-3711227D01*
X36120765Y-3687428D01*
X36129030Y-3664329D01*
X36139520Y-3642150D01*
X36152132Y-3621107D01*
X36166747Y-3601401D01*
X36183223Y-3583223D01*
X36201401Y-3566747D01*
X36221107Y-3552132D01*
X36242150Y-3539520D01*
X36264329Y-3529030D01*
X36287428Y-3520765D01*
X36311227Y-3514804D01*
X36335495Y-3511204D01*
X36359999Y-3510000D01*
X37010001Y-3510000D01*
X37034505Y-3511204D01*
G37*
G36*
X41124505Y-3741204D02*
G01*
X41148773Y-3744804D01*
X41172572Y-3750765D01*
X41195671Y-3759030D01*
X41217850Y-3769520D01*
X41238893Y-3782132D01*
X41258599Y-3796747D01*
X41276777Y-3813223D01*
X41293253Y-3831401D01*
X41307868Y-3851107D01*
X41320480Y-3872150D01*
X41330970Y-3894329D01*
X41339235Y-3917428D01*
X41345196Y-3941227D01*
X41348796Y-3965495D01*
X41350000Y-3989999D01*
X41350000Y-4640001D01*
X41348796Y-4664505D01*
X41345196Y-4688773D01*
X41339235Y-4712572D01*
X41330970Y-4735671D01*
X41320480Y-4757850D01*
X41307868Y-4778893D01*
X41293253Y-4798599D01*
X41276777Y-4816777D01*
X41258599Y-4833253D01*
X41238893Y-4847868D01*
X41217850Y-4860480D01*
X41195671Y-4870970D01*
X41172572Y-4879235D01*
X41148773Y-4885196D01*
X41124505Y-4888796D01*
X41100001Y-4890000D01*
X40199999Y-4890000D01*
X40175495Y-4888796D01*
X40151227Y-4885196D01*
X40127428Y-4879235D01*
X40104329Y-4870970D01*
X40082150Y-4860480D01*
X40061107Y-4847868D01*
X40041401Y-4833253D01*
X40023223Y-4816777D01*
X40006747Y-4798599D01*
X39992132Y-4778893D01*
X39979520Y-4757850D01*
X39969030Y-4735671D01*
X39960765Y-4712572D01*
X39954804Y-4688773D01*
X39951204Y-4664505D01*
X39950000Y-4640001D01*
X39950000Y-3989999D01*
X39951204Y-3965495D01*
X39954804Y-3941227D01*
X39960765Y-3917428D01*
X39969030Y-3894329D01*
X39979520Y-3872150D01*
X39992132Y-3851107D01*
X40006747Y-3831401D01*
X40023223Y-3813223D01*
X40041401Y-3796747D01*
X40061107Y-3782132D01*
X40082150Y-3769520D01*
X40104329Y-3759030D01*
X40127428Y-3750765D01*
X40151227Y-3744804D01*
X40175495Y-3741204D01*
X40199999Y-3740000D01*
X41100001Y-3740000D01*
X41124505Y-3741204D01*
G37*
G36*
X41124505Y-1691204D02*
G01*
X41148773Y-1694804D01*
X41172572Y-1700765D01*
X41195671Y-1709030D01*
X41217850Y-1719520D01*
X41238893Y-1732132D01*
X41258599Y-1746747D01*
X41276777Y-1763223D01*
X41293253Y-1781401D01*
X41307868Y-1801107D01*
X41320480Y-1822150D01*
X41330970Y-1844329D01*
X41339235Y-1867428D01*
X41345196Y-1891227D01*
X41348796Y-1915495D01*
X41350000Y-1939999D01*
X41350000Y-2590001D01*
X41348796Y-2614505D01*
X41345196Y-2638773D01*
X41339235Y-2662572D01*
X41330970Y-2685671D01*
X41320480Y-2707850D01*
X41307868Y-2728893D01*
X41293253Y-2748599D01*
X41276777Y-2766777D01*
X41258599Y-2783253D01*
X41238893Y-2797868D01*
X41217850Y-2810480D01*
X41195671Y-2820970D01*
X41172572Y-2829235D01*
X41148773Y-2835196D01*
X41124505Y-2838796D01*
X41100001Y-2840000D01*
X40199999Y-2840000D01*
X40175495Y-2838796D01*
X40151227Y-2835196D01*
X40127428Y-2829235D01*
X40104329Y-2820970D01*
X40082150Y-2810480D01*
X40061107Y-2797868D01*
X40041401Y-2783253D01*
X40023223Y-2766777D01*
X40006747Y-2748599D01*
X39992132Y-2728893D01*
X39979520Y-2707850D01*
X39969030Y-2685671D01*
X39960765Y-2662572D01*
X39954804Y-2638773D01*
X39951204Y-2614505D01*
X39950000Y-2590001D01*
X39950000Y-1939999D01*
X39951204Y-1915495D01*
X39954804Y-1891227D01*
X39960765Y-1867428D01*
X39969030Y-1844329D01*
X39979520Y-1822150D01*
X39992132Y-1801107D01*
X40006747Y-1781401D01*
X40023223Y-1763223D01*
X40041401Y-1746747D01*
X40061107Y-1732132D01*
X40082150Y-1719520D01*
X40104329Y-1709030D01*
X40127428Y-1700765D01*
X40151227Y-1694804D01*
X40175495Y-1691204D01*
X40199999Y-1690000D01*
X41100001Y-1690000D01*
X41124505Y-1691204D01*
G37*
M02*
